<svg viewBox="0 0 248 456" xmlns="http://www.w3.org/2000/svg" fill="currentColor">
    <path
        d="M81.7134 450.615C82.0028 448.485 82.5817 444.582 82.9999 441.943L83.7602 437.145L78.0739 428.021C74.9464 423.003 70.5966 416.206 68.4076 412.918C64.8194 407.527 64.3062 406.408 63.194 401.554C61.7627 395.306 61.4403 388.516 62.1731 380.049C62.459 376.746 62.4938 371.905 62.2505 369.291C61.3814 359.957 58.8054 355.899 51.9897 353.125C48.4948 351.702 48.2217 351.421 49.7137 350.782C52.8675 349.432 60.9058 351.688 65.3547 355.172C69.6567 358.541 74.303 366.306 76.9214 374.503C79.6607 383.078 82.6755 396.827 83.3565 403.85C83.8806 409.256 83.8018 410.623 82.5523 417.781C81.7903 422.147 81.0632 426.215 80.9364 426.823C80.6776 428.062 82.1448 431.256 83.5285 432.465C84.4262 433.25 84.4484 433.192 85.3778 427.686C87.1474 417.202 91.7316 391.942 93.6239 382.249C97.1437 364.22 96.5086 346.783 91.6572 328.259C90.0298 322.045 85.4184 309.432 83.2615 305.295L82.0081 302.892L81.2417 304.563C80.8202 305.482 78.44 308.846 75.9524 312.039C71.1468 318.208 65.5408 326.912 65.8278 327.759C65.9226 328.039 66.3646 328.217 66.8102 328.154C68.0274 327.983 69.2624 329.306 69.7955 331.351C70.4578 333.892 70.4104 338.383 69.7038 340.043C68.7964 342.174 66.1904 343.687 64.2135 343.231C62.7711 342.898 62.4702 342.534 61.9647 340.511L61.3812 338.176L58.2938 337.752C56.1408 337.456 54.4854 337.597 52.8238 338.219C49.5098 339.457 47.0697 339.136 44.7039 337.149C40.6764 333.766 37.1058 326.697 36.2866 320.486C35.4108 313.846 37.8864 302.924 41.1785 298.906C42.0194 297.879 42.6497 296.947 42.5793 296.835C42.509 296.722 40.2257 296.518 37.5054 296.382C31.9686 296.104 13.8436 292.265 10.205 290.599C8.17137 289.667 8.11332 289.674 8.42305 290.818C9.21455 293.74 6.83424 297.294 3.73854 297.812C0.256337 298.395 -1.07957 294.852 1.55001 292.007C3.15696 290.269 3.27325 288.6 2.00216 285.518C0.324997 281.451 0.233327 279.346 1.49544 273.88C3.36598 265.779 6.43788 262.299 15.1574 258.4C20.616 255.96 27.6973 253.963 31.8359 253.697C33.0999 253.616 34.1609 253.414 34.1937 253.248C34.2266 253.082 31.7755 250.46 28.747 247.421C20.0455 238.69 18.4148 235.605 22.6362 235.861C26.4739 236.093 28.3242 235.7 30.8671 234.111C35.5532 231.183 39.136 227.269 39.8126 224.338C40.2358 222.505 43.633 220.395 46.5267 220.168C52.7245 219.681 56.0778 220.848 61.7411 225.463C63.7515 227.1 65.5323 228.472 65.6986 228.51C65.8649 228.549 66.3916 226.888 66.869 224.82C68.298 218.63 71.9095 211.715 77.3503 204.75C81.2201 199.797 84.7137 197.45 88.5382 197.236C92.0082 197.041 93.8221 197.725 97.9847 200.797C101.434 203.343 106.032 205.554 107.806 205.52C108.489 205.507 110.129 204.546 111.451 203.385C112.773 202.224 114.192 201.351 114.606 201.447C115.019 201.542 115.946 202.458 116.667 203.483L117.977 205.345L116.625 210.531C115.332 215.496 113.19 228.12 112.776 233.224L112.579 235.647L115.924 233.525L119.27 231.403L120.77 220.034C121.595 213.782 122.475 207.779 122.725 206.696C123.147 204.869 122.965 204.443 120.219 200.821C116.344 195.711 109.88 188.055 104.935 182.72C96.952 174.106 93.9562 164.555 93.087 144.944C92.8145 138.797 91.1377 131.713 89.1147 128.161C86.9873 124.427 84.4509 122.531 79.6141 121.059C77.4192 120.392 75.5459 119.617 75.4513 119.338C75.0483 118.148 80.6556 117.794 85.644 118.694C89.9294 119.467 91.0378 119.857 93.5268 121.468C98.2863 124.548 103.803 131.454 107.342 138.763C111.104 146.531 116.129 160.481 118.014 168.392C119.808 175.921 119.895 177.487 119.143 188.911C118.954 191.797 118.909 194.67 119.044 195.296C119.273 196.361 122.869 200.691 123.68 200.878C123.883 200.925 124.719 198.062 125.539 194.516C127.211 187.282 129.574 179.842 133.302 170.078C134.689 166.446 135.791 163.423 135.751 163.359C135.711 163.296 135.026 163.015 134.229 162.736C132.89 162.266 132.742 162.358 132.281 163.942C131.735 165.818 131.009 166.272 126.909 167.307C123.405 168.191 120.912 167.609 119.666 165.617C118.383 163.562 118.805 162.218 121.138 160.937L123.083 159.869L122.74 157.399C122.551 156.041 121.797 153.78 121.064 152.375C119.486 149.353 119.766 147.154 122.125 144.028C126.997 137.573 136.249 133.857 145.355 134.697C146.725 134.823 148 134.772 148.188 134.582C148.376 134.392 149.695 131.793 151.118 128.807L153.705 123.377L153.688 118.586C153.679 115.951 154.016 112.351 154.438 110.586C155.117 107.743 155.096 107.396 154.252 107.548C151.062 108.122 147.404 106.254 147.219 103.956C147.013 101.401 149.482 99.9053 151.583 101.313C153.766 102.775 154.963 102.7 157.744 100.926C159.226 99.9803 161.387 99.0176 162.545 98.7868C164.423 98.4123 164.742 98.1271 165.496 96.1422C167.033 92.0968 169.507 80.2346 169.923 74.9165C170.47 67.9215 170.003 58.019 169.005 55.4413C166.27 48.3739 164.569 39.853 164.566 33.1945C164.565 29.7704 165.021 26.9956 166.886 19.0809C170.178 5.11804 172.533 -0.3908 174.97 0.171897C176.194 0.454464 178.477 5.67754 179.783 11.1856C182.091 20.9159 182.563 27.2822 181.733 37.4925C181.195 44.1145 180.416 47.5665 178.205 53.1235C176.559 57.2624 176.557 57.2815 177.034 62.7162C177.649 69.7198 177.388 80.6757 176.514 84.4898L175.832 87.4675L179.957 83.0927C182.225 80.6865 184.642 77.5835 185.328 76.1972C186.83 73.1624 195.142 63.0851 199.765 58.694C206.375 52.4155 218.152 46.3324 220.938 47.7575C222.014 48.3076 222.079 48.6238 221.568 50.8364C220.944 53.5397 218.552 57.937 215.467 62.0515C209.911 69.4636 203.331 74.5642 192.681 79.7147C186.346 82.7788 185.367 83.5237 180.188 89.226C177.057 92.6739 172.821 98.7087 173.261 99.0944C173.326 99.1517 174.424 99.7363 175.701 100.394C176.978 101.051 179.04 102.664 180.284 103.978C183.23 107.091 187.529 114.419 189.053 118.926C189.717 120.888 190.419 122.531 190.614 122.576C190.808 122.621 191.478 121.762 192.102 120.668C193.779 117.724 200.09 109.366 201.123 108.721C202.601 107.797 203.294 108.345 203.436 110.548C203.632 113.602 204.691 115.45 207.924 118.383C210.185 120.435 211.588 121.261 214.446 122.222C218.893 123.718 220.042 124.85 220.987 128.665C222.199 133.557 221.252 137.558 217.236 144.525C216.67 145.505 216.733 145.542 218.963 145.544C223.044 145.547 234.253 148.841 239.208 151.493C244.183 154.156 246.274 156.154 247.117 159.05C248.002 162.088 247.707 164.397 245.995 167.856C245.149 169.565 244.149 172.282 243.772 173.893C243.203 176.335 243.247 177.077 244.043 178.35C244.568 179.191 245.428 179.978 245.954 180.099C247.302 180.41 248.34 182.483 247.694 183.575C246.563 185.486 244.365 186.179 240.516 185.834C238.462 185.651 233.702 185.64 229.939 185.811C226.175 185.982 222.189 186.155 221.081 186.197C219.972 186.239 219.031 186.421 218.99 186.602C218.948 186.783 219.604 187.538 220.448 188.28C222.963 190.489 226.241 196.222 227.106 199.923C228.248 204.807 228.051 210.251 226.613 213.52C224.448 218.443 219.53 221.424 214.607 220.798L211.971 220.463L211.204 223.089C210.591 225.185 210.165 225.814 209.09 226.21C206.533 227.153 203.567 224.1 202.988 219.929C202.68 217.711 202.909 216.763 204.505 213.633C205.093 212.48 204.952 212.283 202.294 210.555C200.733 209.54 198.868 207.923 198.151 206.963C196.095 204.212 194.037 201.911 192.363 200.494C190.871 199.23 190.796 199.215 190.075 200.02C189.666 200.478 188.166 201.578 186.743 202.465C184.827 203.658 183.563 204.038 181.876 203.931C177.71 203.666 176.27 204.272 169.222 209.256C165.408 211.953 161.599 214.336 160.758 214.552C158.731 215.073 154.505 214.057 152.389 212.54C150.126 210.917 148.192 207.839 147.978 205.518C147.766 203.213 149.123 198.94 153.259 188.884C156.147 181.864 157.33 177.125 156.421 176.224C155.896 175.705 148.89 182.106 144.971 186.685C140.772 191.59 136.62 197.78 132.683 205.001L129.846 210.204L128.559 219.359C127.85 224.394 127.34 228.623 127.424 228.758C127.508 228.892 129.556 229.056 131.974 229.121C142.485 229.405 149.21 233.886 150.904 241.733C151.333 243.722 151.238 244.976 150.447 247.776L149.449 251.308L151.856 252.163C153.552 252.765 154.461 253.425 154.936 254.398C155.765 256.098 155.595 256.93 154.096 258.506C151.21 261.54 143.599 261.354 140.787 258.181C139.186 256.374 138.752 256.453 136.698 258.921C135.843 259.949 132.085 262.626 128.346 264.869C120.818 269.387 120.644 269.652 122.773 273.383C124.45 276.32 124.611 277.766 123.811 282.734C122.968 287.975 122.797 287.366 128.779 300.366C131.33 305.909 131.406 306.231 130.895 309.334C130.31 312.881 129.061 314.903 125.811 317.562C123.437 319.504 118.906 320.386 116.316 319.41L114.446 318.706L113.957 320.806C113.688 321.961 110.634 336.755 107.171 353.681C101.448 381.652 99.7158 391.007 100.503 389.697C100.657 389.44 102.704 383.08 105.051 375.565C107.398 368.05 110.125 359.964 111.112 357.596C114.003 350.662 119.11 343.69 123.811 340.259C125.22 339.23 126.908 337.714 127.561 336.89C129.395 334.574 134.985 330.658 139.83 328.294C149.944 323.359 157.479 323.483 167.427 328.749C172.153 331.25 174.949 333.68 178.8 338.633C182.48 343.364 186.311 346.733 192.751 350.899C195.177 352.468 197.258 354.036 197.375 354.384C198.061 356.408 194.458 357.401 187.112 357.211C173.506 356.859 161.842 352.976 155.704 346.756C154.594 345.63 153.375 344.638 152.997 344.551C152.618 344.463 148.85 346.65 144.623 349.41C138.541 353.381 135.329 355.959 129.22 361.772C124.976 365.811 119.725 371.071 117.552 373.461C113.543 377.868 106.465 387.585 101.028 396.142L98.0388 400.848L96.4827 409.012C94.4754 419.543 89.1611 450.857 88.8921 453.737C88.7612 455.14 88.488 455.908 88.1484 455.83C87.8532 455.761 87.7553 455.08 87.9309 454.314C88.1065 453.549 89.0987 447.726 90.1357 441.373C92.6375 426.046 96.7595 402.885 100.062 385.6C102.246 374.165 102.777 370.346 102.93 364.954C103.304 351.793 102.063 340.087 98.9866 327.762C96.881 319.326 91.6968 305.446 90.3024 304.512C89.7372 304.134 87.8661 303.63 86.1444 303.394L83.014 302.964L84.7219 306.618C92.7014 323.69 96.9625 344.519 96.516 364.272C96.3728 370.608 95.9806 373.629 93.8302 384.96C90.4759 402.635 86.4919 425.158 84.087 440.042C82.2195 451.599 80.6001 458.811 81.7134 450.615ZM84.089 434.979C84.0301 434.56 83.2323 433.266 82.316 432.102C80.6773 430.02 79.6287 426.582 80.3962 425.807C81.3253 424.869 76.6221 408.848 70.9375 393.587C69.5185 389.778 68.5067 386.568 68.689 386.454C69.1108 386.19 68.7051 385.195 72.8683 396.702C76.1338 405.728 77.0962 408.68 80.073 418.807L80.9969 421.95L81.4092 420.217C81.9593 417.904 80.8102 406.956 79.2708 399.835C77.7306 392.71 75.9258 387.024 72.9742 379.996C71.7178 377.005 70.8882 374.603 71.1308 374.659C71.7276 374.797 74.6738 381.653 76.7212 387.669C78.8889 394.039 80.9937 403.383 81.5869 409.271C81.8456 411.838 82.197 413.97 82.3677 414.01C83.0006 414.156 83.0485 408.397 82.4627 402.579C81.7475 395.475 77.2617 376.604 74.9358 370.913C72.7708 365.617 68.3151 358.647 65.5407 356.217C62.8691 353.878 57.7364 351.696 54.0174 351.32C50.0721 350.92 49.3667 351.311 52.1444 352.359C60.3493 355.453 63.9422 363.338 63.0811 376.359C61.6459 398.063 63.0301 404.49 71.834 416.998C74.6782 421.039 78.4648 426.849 80.2486 429.909C83.418 435.347 84.3052 436.519 84.089 434.979ZM106.578 382.843C109.214 378.031 112.654 372.353 114.221 370.224C117.043 366.394 123.465 359.739 125.165 358.884C126.584 358.171 126.063 358.925 123.648 361.08C120.196 364.161 115.933 368.914 113.652 372.224C111.275 375.674 103.212 390.067 103.276 390.744C103.3 390.994 104.703 389.17 106.395 386.689C112.106 378.313 118.823 370.589 127.789 362.087C135.229 355.033 137.953 352.837 144.576 348.551L152.483 343.435L150.682 342.441C149.691 341.895 147.274 340.796 145.31 339.999C138.042 337.052 128.827 337.56 123.88 341.181C119.882 344.107 114.579 351.257 111.976 357.232C110.639 360.298 102.678 385.163 102.912 385.538C102.989 385.661 104.166 383.321 105.527 380.338C111.088 368.15 116.859 358.884 122.731 352.713C126.874 348.359 132.06 343.763 132.335 344.202C132.432 344.358 130.86 345.939 128.841 347.716C119.163 356.23 112.865 365.665 104.748 383.806C99.7828 394.905 100.044 394.767 106.578 382.843ZM105.687 358C106.509 353.721 108.216 345.186 109.48 339.032C110.745 332.879 112.145 325.645 112.593 322.957L113.406 318.07L110.759 316.574C109.303 315.752 108.016 315.139 107.899 315.212C107.782 315.285 106.541 321.396 105.142 328.791C102.614 342.153 102.602 342.273 103.168 347.725C103.482 350.743 103.759 356.021 103.783 359.453C103.808 362.886 103.91 365.713 104.01 365.736C104.111 365.759 104.865 362.278 105.687 358ZM65.9821 342.515C68.0639 342.092 69.1172 340.558 69.4568 337.454C69.8832 333.558 68.8552 329.675 67.2735 329.207C66.5878 329.005 65.7475 328.751 65.4062 328.643C65.0648 328.535 64.8975 327.962 65.0344 327.369C65.4597 325.527 70.3421 318.049 74.9683 312.154C77.4015 309.053 79.8195 305.617 80.3418 304.518L81.2914 302.519L79.1494 301.422C74.3818 298.979 70.4856 294.378 70.4237 291.118C70.4098 290.388 70.3137 289.771 70.2102 289.747C70.1066 289.723 68.6142 290.205 66.8937 290.818C63.1766 292.142 56.2752 293.855 51.2695 294.696C46.3605 295.521 44.1366 296.618 41.8456 299.346C40.2327 301.266 39.66 302.524 38.485 306.725C36.679 313.182 36.4207 317.939 37.5921 323.175C38.7635 328.412 42.6775 334.962 45.9482 337.16L48.1587 338.646L52.1919 337.665C59.0311 336.002 62.1419 336.83 62.7643 340.48C63.1178 342.553 63.769 342.965 65.9821 342.515ZM105.32 324.227L107.151 314.533L100.232 309.894C92.4378 304.669 91.6982 304.304 92.4037 306.025C96.7039 316.517 100.107 327.43 101.426 334.957L102.092 338.755L102.79 336.337C103.174 335.008 104.313 329.558 105.32 324.227ZM185.671 356.381C191.564 356.741 196.36 356.149 196.618 355.03C196.71 354.63 195.008 353.213 192.485 351.59C186.384 347.667 181.678 343.515 177.818 338.649C172.134 331.485 165.646 327.473 157.223 325.913C152.891 325.11 152.107 325.133 147.789 326.191C145.2 326.826 141.986 327.933 140.649 328.65L138.216 329.956L141.493 329.609C149.921 328.719 158.944 329.734 163.299 332.064C165.984 333.499 170.436 336.914 170.314 337.444C170.258 337.689 169.21 337.053 167.986 336.03C165.117 333.634 160.97 331.476 157.847 330.755C150.91 329.154 137.578 330.147 133.868 332.542C132.673 333.313 131.754 334.037 131.825 334.151C131.896 334.265 133.225 334.071 134.777 333.72C139.49 332.653 143.552 332.764 150.565 334.15L157.188 335.46L151.516 334.649C148.396 334.202 144.102 333.815 141.973 333.787C136.928 333.721 129.613 335.468 128.419 337.025C127.172 338.65 127.201 338.684 129.296 338.023C134.065 336.518 142.564 337.675 148.761 340.672C150.805 341.661 153.24 343.426 155.24 345.369C162.482 352.404 170.999 355.486 185.671 356.381ZM5.05636 296.525C7.0656 295.269 7.96055 293.597 7.76414 291.465C7.66973 290.441 7.75911 289.498 7.96279 289.371C8.16648 289.244 10.2175 289.895 12.521 290.818C20.3791 293.968 42.023 296.861 45.861 295.275C46.7321 294.915 49.4184 294.267 51.8306 293.834C57.4713 292.822 60.2446 292.138 65.6452 290.43L70.0343 289.042L70.974 286.536C72.8058 281.651 77.3304 278.073 80.6936 278.85C81.4257 279.019 82.0585 278.985 82.0999 278.775C82.1404 278.565 80.7241 276.656 78.9508 274.533C74.7651 269.522 67.0839 263.33 61.1095 260.15C57.0016 257.964 55.3492 257.386 48.7872 255.84C42.4315 254.342 40.431 254.073 36.3866 254.175C24.4238 254.476 11.1963 259.389 5.93392 265.486C4.08674 267.625 3.84495 268.223 2.54376 273.859C1.04194 280.364 1.04605 280.453 3.11767 286.394L4.18503 289.455L2.42159 291.926C1.02537 293.883 0.724278 294.642 0.975744 295.57C1.38606 297.085 3.4041 297.558 5.05636 296.525ZM123.198 318.292C125.99 317.03 129.699 312.626 130.348 309.805C130.921 307.315 130.57 306.189 126.209 296.51C124.354 292.394 122.739 288.364 122.621 287.554C122.502 286.745 122.695 284.045 123.05 281.554C123.611 277.618 123.555 276.735 122.626 274.798C119.978 269.277 113.68 264.877 106.656 263.64C103.251 263.04 101.962 263.076 99.0665 263.855C97.1483 264.371 94.7709 265.324 93.7834 265.973C92.0822 267.09 91.93 267.395 90.8865 271.786C89.2402 278.714 89.0696 279.122 87.3805 280.178C85.9647 281.062 85.562 281.062 82.9869 280.173C79.1644 278.852 76.8707 279.498 74.1585 282.657C70.4525 286.973 70.1846 292.65 73.5158 296.275C76.4697 299.49 79.1138 300.793 86.7578 302.801C93.3226 304.526 94.2847 304.912 97.4173 307.087C101.131 309.666 110.515 315.674 113.197 317.19C114.104 317.703 116.232 318.384 117.926 318.703C120.399 319.169 121.437 319.089 123.198 318.292ZM84.4174 278.245C83.2745 275.625 82.1607 273.552 82.2115 274.14C82.3527 275.771 83.8905 279.58 84.4623 279.716C84.9242 279.825 84.9102 279.374 84.4174 278.245ZM86.4499 273.879C86.0852 269.898 80.616 246.337 80.0251 246.201C79.6275 246.109 77.8839 237.101 78.0905 236.206C78.1596 235.907 78.5269 235.734 78.9066 235.821C80.7119 236.238 84.0781 242.574 83.5984 244.653C83.4542 245.277 84.5248 250.582 85.9774 256.442C87.43 262.301 88.8166 268.819 89.0587 270.926L89.4988 274.757L89.8893 271.713C90.1948 269.332 90.5962 268.264 91.7314 266.811C92.6586 265.624 93.6647 263.333 94.517 260.467C95.2507 257.999 96.7217 254.384 97.7858 252.432C100.229 247.951 105.461 241.476 108.978 238.58L111.684 236.353L112.109 231.845C112.342 229.366 113.541 222.536 114.773 216.668C116.736 207.32 116.935 205.815 116.376 204.519C115.35 202.14 113.958 201.968 111.937 203.971C110.973 204.926 109.686 205.842 109.077 206.007C106.586 206.682 101.539 204.561 96.8983 200.888C92.7876 197.636 87.7847 197.123 83.7228 199.539C80.0632 201.716 73.6219 210.291 70.1136 217.657C66.6356 224.959 65.2405 233.815 66.0685 243.336C66.3823 246.944 66.7044 247.923 68.1844 249.766C69.1445 250.962 71.8514 254.78 74.1996 258.251C76.5478 261.723 78.4983 264.436 78.5342 264.281C78.57 264.125 77.9621 261.151 77.1832 257.671C76.4044 254.191 75.8086 250.646 75.8592 249.794C75.9819 247.726 77.1616 246.004 78.0464 246.601C79.0366 247.269 79.9041 251.63 79.3801 253.307C78.6014 255.798 85.445 279.699 86.4611 278.036C86.638 277.747 86.6329 275.876 86.4499 273.879ZM88.3771 272.633C88.1351 269.617 87.2807 264.674 86.4785 261.647C85.6763 258.62 84.525 254.057 83.92 251.507C83.1369 248.206 82.6081 246.944 82.0845 247.126C81.5379 247.316 82.0578 250.272 84.1088 258.635C85.6267 264.824 87.0111 271.924 87.1852 274.413C87.4075 277.591 87.6974 278.815 88.1594 278.526C88.6214 278.238 88.6862 276.484 88.3771 272.633ZM79.6732 273.36C78.9868 270.826 73.5715 264.642 67.9265 259.945C63.5893 256.337 56.0001 251.131 55.5171 251.433C54.9904 251.762 55.0907 251.845 61.2742 256.22C68.0888 261.041 72.3644 264.998 76.5899 270.395C78.2869 272.562 79.7394 274.354 79.8177 274.377C79.8961 274.399 79.831 273.943 79.6732 273.36ZM80.3498 270.994C78.9708 266.168 64.7248 244.857 62.505 244.3C61.1956 243.971 61.7984 245.094 65.4092 249.714C70.1294 255.753 76.6339 265.658 78.9775 270.375C79.9723 272.378 80.8678 273.965 80.9675 273.903C81.0672 273.841 80.7892 272.532 80.3498 270.994ZM82.7012 271.456C81.4495 267.635 79.2507 259.612 78.6771 256.774C78.3708 255.258 77.9464 254.279 77.7341 254.598C77.1521 255.473 80.0707 267.738 81.5926 270.813C83.218 274.097 83.6479 274.346 82.7012 271.456ZM71.5802 265.559C71.4726 265.241 71.1126 264.922 70.7803 264.85C70.4175 264.77 70.4338 264.984 70.8217 265.384C71.6483 266.236 71.8233 266.277 71.5802 265.559ZM68.678 263.05C67.9958 261.967 59.9838 255.93 56.6696 254.001C55.3782 253.249 53.1593 251.958 51.7388 251.131C48.4302 249.205 45.3802 246.37 45.599 245.422C45.7287 244.86 46.4732 244.847 48.7282 245.368C52.3326 246.2 54.6192 247.519 55.615 249.339C56.027 250.093 57.9245 251.738 59.8317 252.995C61.7388 254.252 64.0737 255.92 65.0202 256.702C65.9668 257.484 66.9017 258.024 67.0978 257.901C67.2938 257.779 67.1799 256.398 66.8445 254.833C66.2182 251.911 62.9805 247.204 59.6926 244.435C57.9852 242.997 53.5196 236.495 53.7007 235.711C54.0593 234.158 61.7465 239.483 62.374 241.72C62.7771 243.157 64.6672 245.571 65.1519 245.268C65.3236 245.161 65.3511 243.521 65.213 241.625C65.075 239.728 65.0737 236.329 65.2103 234.072C65.4927 229.402 65.29 229.04 60.1296 224.997C54.6369 220.694 46.8419 219.404 42.7707 222.124C41.924 222.69 40.5808 224.457 39.7167 226.141C37.4368 230.586 31.9397 235.332 27.9047 236.34C26.7103 236.639 24.6758 236.787 23.3836 236.669C22.0913 236.552 20.9985 236.609 20.955 236.798C20.7302 237.771 25.9875 243.947 32.1352 249.93L35.6928 253.392L39.2965 253.521C47.4247 253.812 58.7193 257.433 65.7432 262C68.8517 264.021 69.418 264.224 68.678 263.05ZM71.4277 259.394C69.4759 256.48 67.7844 254.154 67.6689 254.226C67.5533 254.299 67.7144 255.472 68.0267 256.835C68.4647 258.745 69.2104 259.896 71.2849 261.864C72.7645 263.267 74.2004 264.478 74.4758 264.554C74.7513 264.63 73.3795 262.308 71.4277 259.394ZM101.283 262.569C106.653 261.963 111.377 263.369 116.916 267.218L119.828 269.243L126.658 265.092C130.414 262.809 134.626 259.825 136.017 258.462C137.409 257.098 138.876 256.059 139.278 256.152C139.68 256.244 140.649 256.947 141.432 257.712C144.784 260.992 152.139 260.497 154.479 256.835C155.329 255.503 153.468 252.974 151.392 252.64C148.63 252.195 148.414 251.645 149.629 248.14C151.039 244.071 150.454 240.46 147.761 236.62C145.389 233.238 143.343 232.051 137.622 230.739C129.883 228.962 123.807 229.821 117.26 233.615C106.29 239.971 98.8029 249.268 94.8052 261.496L93.7029 264.868L96.3643 263.846C97.828 263.283 100.041 262.709 101.283 262.569ZM54.9891 250.44C55.4986 249.284 53.2445 247.53 49.6708 246.302C46.2912 245.14 45.5572 245.663 47.842 247.603C51.6647 250.85 54.3401 251.912 54.9891 250.44ZM78.6284 251.66C78.7401 250.471 78.468 248.916 78.024 248.206L77.2166 246.914L76.716 249.082C76.1311 251.616 76.4792 253.373 77.6181 253.636C78.2729 253.787 78.4639 253.413 78.6284 251.66ZM61.7032 243.614C62.4953 242.814 60.183 239.531 57.643 237.849C56.2224 236.908 54.9482 236.208 54.8116 236.293C54.6749 236.379 55.6525 238.051 56.9839 240.01C59.2591 243.357 60.7957 244.531 61.7032 243.614ZM82.8884 245.421C83.3486 243.427 80.251 236.41 79.2007 237.066C78.7421 237.353 79.8712 244.018 80.6067 245.367C81.2396 246.527 82.6254 246.56 82.8884 245.421ZM123.504 230.063C126.103 229.297 126.68 228.92 126.674 227.998C126.669 227.378 127.276 222.937 128.023 218.128L129.379 209.386L132.294 204.199C138.874 192.49 144.559 185.084 151.968 178.57C155.174 175.752 156.299 174.443 156.417 173.391C156.557 172.151 156.338 171.91 154.585 171.375C152.634 170.779 152.522 170.829 148.939 173.921C144.512 177.742 139.929 182.826 136.996 187.173C134.341 191.106 133.65 191.677 134.147 189.528C134.622 187.469 138.723 175.772 140.953 170.115L142.634 165.85L141.139 165.206C136.732 163.309 136.823 163.278 135.178 167.256C128.677 182.984 124.472 198.821 121.871 217.374C120.827 224.824 120.052 230.938 120.15 230.96C120.247 230.983 121.756 230.579 123.504 230.063ZM160.172 213.917C161.066 213.758 164.687 211.571 168.219 209.058C171.751 206.545 175.318 204.194 176.147 203.832C176.975 203.471 179.2 203.171 181.09 203.167C186.388 203.155 189.371 200.912 192.052 194.927C194.737 188.934 194.563 183.208 191.55 178.332C189.258 174.623 187.897 173.805 184.504 174.095C181.063 174.39 176.583 173.42 175.996 172.253C175.761 171.785 175.649 170.501 175.747 169.398C176.059 165.883 175.597 164.388 173.711 162.803C171.378 160.844 166.24 159.869 163.831 160.928C159.969 162.627 157.322 168.527 157.3 175.488C157.283 180.533 156.89 182.027 153.237 190.939C149.426 200.233 148.187 204.838 148.943 206.89C150.584 211.343 155.912 214.677 160.172 213.917ZM209.587 224.987C210.007 224.506 210.514 223.127 210.713 221.923L211.074 219.734L214.004 220.081C221.902 221.018 227.451 215.007 227.138 205.853C226.861 197.76 223.357 191.283 216.065 185.389C209.623 180.181 206.867 178.837 198.756 176.944C194.957 176.058 191.655 175.453 191.419 175.6C191.183 175.748 191.61 176.895 192.368 178.149C194.789 182.152 195.131 184.959 193.864 190.447C193.253 193.089 192.389 196.035 191.942 196.992C191.174 198.637 191.21 198.791 192.612 199.79C193.427 200.372 195.527 202.555 197.278 204.641C199.029 206.728 201.652 209.224 203.108 210.188C204.564 211.152 205.79 212.225 205.833 212.572C205.876 212.92 205.4 214.014 204.775 215.004C203.267 217.395 203.336 220.366 204.963 223.149C206.38 225.572 208.381 226.367 209.587 224.987ZM123.687 202.529C123.745 202.277 122.957 201.278 121.936 200.308C119.431 197.929 118.079 195.421 118.168 193.319C118.283 190.579 113.961 180.187 106.908 166.243C103.342 159.194 100.626 153.473 100.873 153.53C101.714 153.724 111.911 174.043 115.839 183.35C118.211 188.972 118.333 189.149 118.446 187.148C118.608 184.293 115.971 172.671 113.635 165.945C111.412 159.544 108.742 153.751 104.561 146.257C102.919 143.315 101.804 140.96 102.084 141.024C102.754 141.179 109.244 153.111 111.528 158.387C113.632 163.248 116.668 172.543 117.8 177.589C118.239 179.544 118.73 181.061 118.891 180.96C119.354 180.671 118.46 172.79 117.538 169.031C115.314 159.968 109.532 144.443 105.451 136.58C103.173 132.191 98.1127 125.868 94.7912 123.261C93.0953 121.929 90.8001 120.69 88.8046 120.029C85.2474 118.85 79.2863 118.387 77.5724 119.157C76.628 119.581 76.8313 119.714 79.3159 120.303C89.1501 122.632 93.2625 130.569 94.0612 148.761C94.4691 158.051 96.2324 166.638 98.9685 172.66C100.914 176.941 102.485 179.032 109.423 186.572C111.416 188.737 115.237 193.275 117.914 196.656C122.657 202.645 123.47 203.472 123.687 202.529ZM142.62 178.867C143.995 177.418 146.515 175.035 148.219 173.572C149.924 172.109 151.167 170.701 150.983 170.443C150.575 169.874 145.214 166.963 144.1 166.706C143.076 166.469 142.769 167.106 139.241 176.766C135.327 187.481 135.219 188.116 137.929 184.458C139.134 182.832 141.245 180.316 142.62 178.867ZM126.371 166.678C130.029 165.89 131.562 164.8 131.528 163.014C131.51 162.034 131.749 161.608 132.367 161.522C133.755 161.327 141.81 164.498 147.728 167.569C150.731 169.127 153.888 170.563 154.742 170.761C156.289 171.118 156.303 171.102 157.704 167.491C159.262 163.472 161.364 160.97 163.881 160.138L165.489 159.605L163.075 155.177C161.747 152.742 159.653 148.274 158.422 145.249C156.475 140.464 155.879 139.525 153.845 138.032C151.863 136.577 150.916 136.226 147.639 135.732C139.332 134.481 131.717 136.352 126.341 140.966C120.934 145.607 119.59 148.609 121.567 151.628C122.903 153.667 123.911 157.721 123.512 159.45C123.362 160.096 122.407 161.122 121.387 161.728C119.145 163.064 119.075 163.286 120.289 165.228C121.478 167.131 122.802 167.447 126.371 166.678ZM227.675 185.175C232.181 184.932 237.66 184.92 239.851 185.147C242.815 185.455 244.214 185.34 245.315 184.698C247.574 183.383 247.544 182.184 245.211 180.476C244.101 179.664 243.039 178.433 242.852 177.74C242.523 176.528 243.579 172.458 246.071 165.324C247.276 161.877 247.193 160.525 245.6 157.663C242.288 151.712 225.692 145.532 215.23 146.355C213.141 146.519 209.091 147.204 206.229 147.877L201.027 149.1L198.032 152.463C196.384 154.312 193.545 157.219 191.722 158.922C189.9 160.626 188.535 162.049 188.691 162.085C188.846 162.12 191.413 161.125 194.395 159.873C198.06 158.333 200.456 157.655 201.788 157.78C203.339 157.926 203.721 158.134 203.577 158.754C203.351 159.737 200.671 161.035 198.832 161.053C198.072 161.06 196.66 161.375 195.694 161.753C190.096 163.94 178.094 170.636 178.528 171.33C178.802 171.769 185.916 169.398 189.535 167.662C191.183 166.871 194.538 165.315 196.993 164.202C199.447 163.089 202.717 161.464 204.26 160.589C207.233 158.904 211.533 157.237 212.394 157.436C214.377 157.893 209.388 162.676 206.06 163.507C203.377 164.177 199.627 165.754 193.563 168.762C191.259 169.905 187.866 171.35 186.021 171.974C182.486 173.169 181.894 173.725 184.551 173.355C185.426 173.233 187.25 173.52 188.606 173.993C189.962 174.467 192.929 175.11 195.201 175.424C202.846 176.48 210.873 179.853 215.831 184.095C216.935 185.04 218.209 185.769 218.661 185.715C219.113 185.661 223.169 185.418 227.675 185.175ZM182.848 172.179C184.937 171.63 188.921 170.102 191.701 168.783C194.481 167.464 198.433 165.644 200.483 164.738C202.549 163.825 204.008 162.889 203.755 162.638C203.235 162.123 199.671 163.551 191.419 167.579C188.282 169.11 183.795 170.895 181.447 171.546C179.099 172.197 177.6 172.83 178.114 172.953C178.629 173.076 180.759 172.727 182.848 172.179ZM178.61 168.946L180.456 167.375L178.512 168.491C177.443 169.104 176.525 169.791 176.473 170.018C176.302 170.758 176.738 170.54 178.61 168.946ZM179.371 165.071C185.002 158.14 187.556 152.887 189.534 144.167C191.311 136.334 191.393 131.541 189.869 124.582C188.089 116.452 183.21 107.466 178.101 102.907C175.893 100.937 175.29 100.665 171.12 99.7541C165.573 98.5424 162.335 98.991 158.141 101.552C155.14 103.386 154.549 103.429 151.328 102.059C149.59 101.319 149.205 101.326 148.523 102.106C147.46 103.321 147.711 104.553 149.296 105.899C150.626 107.029 153.314 107.448 154.105 106.649C154.323 106.428 154.798 106.317 155.161 106.401C155.636 106.51 155.598 107.884 155.025 111.297C153.714 119.105 154.697 136.215 156.653 139.627C157.148 140.491 158.56 143.614 159.791 146.566C161.021 149.518 162.958 153.579 164.095 155.591L166.162 159.247L169.324 159.997C173.307 160.942 175.77 162.853 176.344 165.444C176.573 166.476 176.909 167.355 177.09 167.397C177.272 167.439 178.298 166.392 179.371 165.071ZM184.85 166.21C187.245 164.6 196.923 160.41 198.418 160.336C201.232 160.196 203.775 158.642 201.899 158.209C200.531 157.893 185.603 164.241 183.641 165.973C182.067 167.362 182.895 167.524 184.85 166.21ZM185.617 163.373C189.398 160.402 194.699 155.211 198.859 150.407C203.012 145.611 203.285 145.211 202.529 145.037C202.275 144.978 200.254 147.023 198.039 149.581C193.84 154.43 187.23 160.881 183.295 163.969C181.602 165.298 181.314 165.686 182.195 165.447C182.852 165.269 184.392 164.336 185.617 163.373ZM183.849 162.332C186.55 159.473 190.116 153.732 192.699 148.087C193.97 145.308 195.234 142.547 195.509 141.951C195.783 141.355 195.799 140.82 195.544 140.761C195.289 140.702 194.465 142.13 193.713 143.934C191.316 149.678 187.793 155.927 184.933 159.504C181.014 164.405 180.852 164.636 181.495 164.418C181.805 164.313 182.864 163.374 183.849 162.332ZM207.367 162.402C208.725 161.853 211.787 158.989 211.503 158.534C211.178 158.014 204.975 160.814 204.606 161.647C204.141 162.697 205.63 163.104 207.367 162.402ZM192.139 154.94C193.732 153.274 195.069 151.768 195.109 151.594C195.149 151.419 194.273 151.688 193.161 152.191C191.813 152.8 190.679 153.868 189.758 155.395C187.36 159.367 188.029 159.239 192.139 154.94ZM189.687 150.734C192.151 145.92 193.32 143.147 194.986 138.164C196.431 133.843 198.309 130.745 199.338 130.983C200.681 131.293 199.192 139.372 197.582 140.516C196.69 141.149 191.864 151.054 192.179 151.604C192.24 151.71 193.348 151.367 194.642 150.841C196.909 149.92 198.709 148.007 203.51 141.414C205.457 138.74 208.248 136.166 208.706 136.62C209.292 137.2 208.422 140.444 207.162 142.378C206.581 143.269 205.289 144.746 204.291 145.66C203.293 146.574 202.549 147.438 202.639 147.581C202.728 147.724 204.911 147.367 207.489 146.786C210.068 146.205 212.847 145.723 213.665 145.713C215.472 145.692 216.766 144.258 218.898 139.914C220.815 136.009 221.187 133.061 220.265 129.074C219.427 125.448 218.469 124.451 214.615 123.191C211.337 122.12 207.26 119.291 204.91 116.457C204.103 115.484 203.215 113.412 202.857 111.667L202.226 108.591L200.573 110.283C199.663 111.214 197.076 114.666 194.822 117.954L190.726 123.934L191.077 126.412C191.956 132.605 191.875 136.058 190.701 142.306C190.042 145.816 189.005 149.832 188.398 151.23C186.809 154.887 187.746 154.527 189.687 150.734ZM154.78 137.071C154.857 136.741 153.626 126.169 153.486 125.944C153.284 125.622 149.91 132.788 149.57 134.257C149.357 135.18 149.651 135.463 151.422 136.044C152.579 136.423 153.802 136.839 154.138 136.968C154.475 137.097 154.764 137.143 154.78 137.071ZM205.61 143.308C206.911 141.88 208.634 137.923 208.016 137.78C207.307 137.617 202.847 143.002 202.969 143.873C203.136 145.059 204.229 144.825 205.61 143.308ZM197.617 139.331C198.369 138.216 199.22 133.983 198.885 133.027C198.646 132.344 198.425 132.419 197.76 133.412C197.305 134.091 196.516 135.759 196.007 137.118C195.159 139.378 195.167 139.608 196.103 139.824C196.665 139.954 197.346 139.732 197.617 139.331ZM171.952 98.8155C172.296 98.7927 172.911 98.0557 173.318 97.1777C174.183 95.3137 178.834 89.38 182.004 86.0956C183.283 84.7707 183.885 83.8544 183.435 83.9176C182.979 83.9816 182.561 83.5332 182.425 82.8348C182.219 81.7809 181.728 82.1626 178.182 86.1321L174.171 90.6213L175.408 85.1431C176.767 79.1213 177.063 72.5399 176.359 63.964L175.943 58.887L174.459 59.7511C173.162 60.5061 172.824 60.4997 171.782 59.7C170.656 58.8362 170.593 58.8541 170.662 60.0194C171.348 71.5756 170.403 82.0852 167.903 90.6978C166.987 93.8555 166.025 96.814 165.767 97.2721C165.343 98.0227 165.595 98.1422 168.312 98.4811C169.97 98.6879 171.608 98.8384 171.952 98.8155ZM190.836 79.7969C202.82 73.9685 208.043 70.1989 213.26 63.6139C219.044 56.3144 222.442 49.4882 220.832 48.4028C219.276 47.3536 212.521 50.0945 206.496 54.2198C199.738 58.847 189.41 70.2471 185.668 77.2093C183.763 80.7554 182.96 82.9873 183.543 83.1218C183.714 83.1612 186.995 81.6649 190.836 79.7969ZM176.202 56.2128C178.178 52.4066 181.315 38.1535 181.396 32.6189C181.583 19.699 177.772 1.88429 174.667 1.16737C174.288 1.07996 173.646 1.38873 173.24 1.85354C172.02 3.24869 169.138 11.9105 167.297 19.7087C164.746 30.5195 164.654 36.6508 166.9 45.9856C168.237 51.5418 170.186 56.666 171.658 58.4958C172.679 59.7654 172.853 59.8271 173.847 59.2729C174.44 58.9418 175.5 57.5648 176.202 56.2128Z"
        />
</svg>
    