<svg version="1.0" xmlns="http://www.w3.org/2000/svg" xmlns:svg="http://www.w3.org/2000/svg" preserveAspectRatio="xMidYMid" zoomAndPan="magnify" viewBox="0 0 156.25 128.125" fill="currentColor">
    <g transform="translate(-106.62205,-135.63496)">
        <g>
            <g transform="translate(104.16495,262.11152)">
                <g>
                    <path
                        d="m 13.320312,0 6.535157,-23.0625 c 1.109375,-3.945312 4.070312,-9.25 6.78125,-11.222656 7.15625,-5.179688 14.925781,-7.644532 22.816406,-7.644532 13.9375,0 32.433594,8.261719 38.476563,21.828126 L 96.933594,0 H 107.78516 L 52.785156,-123.32422 H 41.929688 l 2.589843,5.79688 L 2.464844,0 Z m 13.441407,-46.742188 17.511719,-60.921872 c 0.617187,-1.97266 1.355468,-2.96094 2.21875,-2.96094 0.742187,0 1.605468,0.86328 2.34375,2.58984 L 80.65625,-36.75 c 1.480469,3.328125 0.738281,3.945312 -2.097656,1.601562 C 69.1875,-42.792969 57.347656,-48.34375 45.753906,-48.34375 c -5.425781,0 -10.730468,1.234375 -15.664062,3.945312 -1.230469,0.617188 -2.09375,0.988282 -2.710938,0.988282 -1.109375,0 -1.234375,-1.109375 -0.617187,-3.332032 z m 0,0"
                    />
                </g>
            </g>
        </g>
        <g>
            <g transform="translate(147.8018,261.36152)">
                <g>
                    <path
                        d="m 6.167969,-61.664062 c 0,38.480468 27.625,64.128906 61.539062,64.128906 21.085938,0 41.312499,-6.535156 47.355469,-15.660156 V -66.84375 h -10.60547 v 41.070312 C 104.45703,-9.621094 81.273438,0 67.707031,0 39.21875,0 16.03125,-24.664062 16.03125,-61.664062 c 0,-36.996094 23.1875,-61.660158 51.675781,-61.660158 21.085938,0 39.093749,14.55078 40.941409,28.363282 0,0 5.55078,0.246094 5.55078,-6.781252 0,-15.91015 -24.171876,-24.05078 -46.492189,-24.05078 -33.914062,0 -61.539062,25.65234 -61.539062,64.128908 z m 0,0"
                    />
                </g>
            </g>
        </g>
    </g>
</svg>
